<svg xmlns:svg="http://www.w3.org/2000/svg" xmlns="http://www.w3.org/2000/svg" viewBox="0 0 1435 960" width="1435" height="960" preserveAspectRatio="none" >
        <defs>
            <linearGradient id='g1' gradientUnits='userSpaceOnUse' x1='-7.04%' y1='39.94%' x2='107.04%' y2='60.06%'>
            <stop stop-color='#3d75ca'/>
            <stop offset='.071' stop-color='#4374ce'/>
            <stop offset='.143' stop-color='#6b61f0'/>
            <stop offset='.214' stop-color='#6257e5'/>
            <stop offset='.286' stop-color='#6e53df'/>
            <stop offset='.357' stop-color='#7c51dc'/>
            <stop offset='.429' stop-color='#8948d2'/>
            <stop offset='.5' stop-color='#953bc5'/>
            <stop offset='.571' stop-color='#9e38bf'/>
            <stop offset='.643' stop-color='#ab38bf'/>
            <stop offset='.714' stop-color='#b43397'/>
            <stop offset='.786' stop-color='#bf3332'/>
            <stop offset='.857' stop-color='#c13534'/>
            <stop offset='.929' stop-color='#bf3531'/>
            <stop offset='1' stop-color='#c03431'/>
            </linearGradient>
            </defs>
        <g>
        <path  style="fill:url(#g1);" d="m 0,740.40019 c 18.550234,4.04241 2.9940743,-6.67766 5.5253746,-9.20896 0.5339779,-0.53398 9.2899264,7.44814 11.0507494,9.20896 3.801216,3.80121 21.155088,16.52509 22.101498,18.41791 0.549116,1.09824 -0.868229,2.81536 0,3.68359 1.895374,1.89537 4.826713,-18.76725 9.208957,-16.57613 4.380366,2.19019 3.513035,11.88637 5.525375,12.89254 4.796577,2.39829 3.424927,-1.58313 5.525374,-3.68358 0.434115,-0.43411 1.567234,0.54912 1.841792,0 0.823674,-1.64735 -1.647348,-6.34905 0,-5.52537 0.959019,0.47951 4.487613,6.56313 7.367166,3.68358 3.045821,-3.04582 1.60439,-12.89254 1.841792,-12.89254 5.66391,0 6.07853,16.3938 7.367166,20.25971 1.324698,3.97409 5.042225,0.29183 7.367166,1.84179 2.171057,1.44737 2.60587,5.90741 5.525374,7.36716 2.812142,1.40607 1.877087,-5.56067 3.683583,-7.36716 4.31e-4,-4.3e-4 -8.9e-4,7.3636 0,7.36716 0.660613,2.64246 6.07842,3.77492 7.36717,1.84179 0.89965,-1.34948 2.89791,-19.20358 7.36716,-14.73433 3.85485,3.85485 4.43833,20.34985 5.52538,25.78508 1.08152,5.40762 10.56414,17.93132 14.73433,22.1015 1.9241,1.92411 3.49561,6.35229 5.52537,7.36717 0.54912,0.27456 2.45573,0 1.8418,0 -1.8418,0 -5.52538,-1.84179 -5.52538,0 0,1.84179 3.73857,-0.4467 5.52538,0 3.48888,0.87222 10.04359,7.36716 12.89254,7.36716 1.81212,0 3.68358,-13.22418 3.68358,-12.89254 0,6.54881 4.32016,19.0545 9.20896,23.94329 8.46125,8.46126 11.67104,-11.66149 20.2597,-7.36716 6.12205,3.06102 8.12948,13.27369 14.73433,16.57612 2.90655,1.45327 4.65588,-6.39487 5.52538,-5.52537 1.37279,1.37279 0.59893,4.03393 1.84179,5.52537 3.09692,3.7163 9.92295,9.8479 14.73433,11.05075 5.33719,1.3343 2.47433,-16.76836 11.05075,-11.05075 4.75667,3.17111 0.7296,12.12737 1.84179,16.57612 0.70276,2.81104 13.34948,7.60267 14.73434,5.52538 1.40411,-2.10617 0.0519,-9.15707 1.84179,-7.36717 2.24327,2.24327 0.86273,4.11495 3.68358,5.52538 4.72863,2.36431 7.18628,-9.02808 7.36717,-9.20896 0.86823,-0.86823 2.45572,0 3.68358,0 1.22786,0 2.58535,-0.54912 3.68358,0 4.70483,2.35241 6.64128,9.58543 11.05075,12.89254 1.99734,1.498 10.03737,7.18219 11.05075,9.20896 0.55812,1.11623 1.07,4.75358 1.84179,5.52537 0.86823,0.86823 2.81536,0.86823 3.68359,0 5.4021,-5.4021 3.74643,-12.38335 7.36716,-18.41791 1.75473,-2.92456 5.47772,-4.53299 7.36717,-7.36717 3.82148,-5.73222 5.28855,-10.69551 9.20895,-16.57612 3.4192,-5.1288 12.76216,-6.97601 14.73434,-12.89254 0.38828,-1.16485 -0.54912,-2.58535 0,-3.68359 2.14444,-4.28888 6.24346,7.36717 7.36716,7.36717 3.06966,0 -0.8433,-6.25741 0,-9.20896 0.60811,-2.12839 2.69365,-3.54551 3.68359,-5.52537 3.15116,-6.30232 -2.30484,-20.02818 5.52537,-23.94329 8.3665,-4.18325 1.62203,22.61689 11.05075,20.2597 5.36452,-1.34112 5.45219,-35.54597 14.73433,-23.94329 2.51562,3.14453 3.00976,7.90623 5.52538,11.05075 3.25427,4.06784 6.98291,7.79648 11.05075,11.05075 0.65672,4.52439 3.91001,0.76489 5.52537,1.84179 8.80895,5.87264 16.43333,16.43334 23.94329,23.94329 0.52011,0.52011 14.69126,18.39639 14.73433,18.41792 10.0389,5.01945 26.16503,-7.9519 36.83583,-3.68358 2.61732,1.04692 15.27806,18.96163 18.41792,22.10149 3.64957,3.64958 15.51907,-5.57983 20.2597,-3.68358 5.89563,2.35825 5.16591,22.31718 14.73434,16.57613 8.29836,-4.97902 7.45946,-37.38961 9.20895,-47.88658 0.23453,-1.40718 8.40953,-19.21735 9.20896,-18.41792 0.2371,0.2371 0,51.19547 0,57.09554 0,5.24339 -0.86145,13.24918 0,18.41791 1.39247,8.35481 6.14235,17.21135 7.36717,25.78508 1.29746,9.08222 0.54682,18.56207 1.84179,27.62688 0.41485,2.90398 1.3688,15.65244 5.52537,16.57612 17.84728,3.96606 42.45809,6.45111 60.77912,7.36717 19.92083,0.99604 32.39537,1.29933 49.72837,-7.36717 7.02506,-3.51253 0.66936,-22.1015 9.20896,-22.1015 5.61252,0 5.41773,9.31661 7.36717,7.36717 7.24992,-7.24993 9.81199,-15.72534 20.2597,-7.36717 3.42593,2.74074 21.18347,23.63728 22.1015,23.94329 1.16485,0.38829 2.58535,-0.54911 3.68359,0 0.54911,0.27456 -0.58243,2.03594 0,1.84179 9.26265,-3.08755 8.10961,-12.04068 12.89254,-18.41791 1.56281,-2.08375 4.7017,-3.05435 5.52537,-5.52538 1.14672,-3.44017 0.59532,-6.12069 3.68358,-9.20895 0.97071,-0.97071 2.71288,-0.87109 3.68359,-1.8418 1.372,-1.372 2.6429,-6.32649 3.68358,-7.36716 0.43411,-0.43412 1.40768,0.43411 1.84179,0 1.60972,-1.60972 0.93022,-7.38582 1.84179,-9.20896 1.96965,-3.93929 7.77851,8.79762 11.05075,5.52538 5.0626,-5.06261 8.53685,-11.71418 11.05075,-18.41792 3.55589,-9.48238 -0.4819,-22.01569 1.84179,-31.31046 2.36111,-9.44443 3.89395,-19.68007 5.52538,-29.46866 0.63833,-3.83001 2.92209,-7.24331 3.68358,-11.05075 1.3685,-6.84251 -2.71157,-19.82482 5.52537,-23.94329 11.36276,-5.68138 4.26463,24.13697 9.20896,25.78508 9.55995,3.18665 10.26399,-7.89468 16.57613,-11.05075 5.09713,-2.54856 0.91964,9.90057 9.20895,3.68359 1.22911,-0.92183 2.73684,-13.82206 5.52538,-12.89254 4.58228,1.52742 7.86025,13.38562 11.05075,16.57612 5.67786,5.67787 12.62779,6.30817 14.73433,14.73433 0.62048,2.48193 -1.70896,11.18359 0,12.89254 0.29273,0.29274 10.04733,1.00342 11.05075,0 0.97071,-0.97071 0.87108,-2.71287 1.84179,-3.68358 5.13123,-5.13123 8.21522,-4.38595 11.05075,-12.89254 4.50157,-13.50472 -1.41872,-5.00264 5.52537,-16.57612 1.3401,-2.23351 4.18528,-3.29188 5.52538,-5.52538 2.4176,-4.02934 2.07976,-7.60514 5.52537,-11.05075 0.35963,-0.35963 3.1968,-2.32857 1.84179,-3.68358 -0.43411,-0.43412 -1.84179,-0.61393 -1.84179,0 0,0.61393 1.22786,0 1.84179,0 6.79338,0 5.42129,-4.55243 11.05075,-7.36717 1.09824,-0.54911 2.58535,0.54912 3.68359,0 0.31167,-0.15584 7.40266,-8.23481 9.20895,-5.52537 1.22786,1.84179 2.69365,7.50524 3.68359,5.52537 1.51678,-3.03356 6.73797,-21.42652 7.36716,-23.94329 0.71131,-2.84524 -0.92403,-6.43686 0,-9.20895 1.35844,-4.07531 2.74923,-8.22078 3.68359,-12.89255 1.30407,-6.52035 5.80773,-10.3384 7.36716,-16.57612 0.5956,-2.3824 2.45572,-7.36717 0,-7.36717 -0.86823,0 -1.22786,2.45573 -1.84179,1.8418 -0.64162,-0.64162 0.10974,-55.47324 1.84179,-58.93733 5.13781,-10.27561 13.52116,11.05075 16.57613,11.05075 4.65287,0 0.9128,-10.1056 1.84179,-12.89254 1.30234,-3.90703 4.52652,-7.05535 5.52537,-11.05075 0.84829,-3.39314 0.74286,-5.91216 1.84179,-9.20896 1.49527,-4.4858 9.51027,-22.25216 12.89256,-23.94329 2.5835,-2.05919 6.4634,1.37279 9.2089,0 4.7053,-2.35261 7.6363,-9.29866 12.8926,-11.05075 10.0956,-3.3652 2.3761,17.02234 11.0507,1.84179 11.8252,-20.69396 3.9344,-32.81546 7.3672,-53.41195 0.6231,-3.73856 6.5425,-24.96044 0,-18.41792 -0.9251,0.92507 6.1525,6.73999 12.8925,0 6.7834,-6.78339 1.738,6.20856 5.5254,3.68359 3.5141,-2.3427 2.6809,-5.24566 7.3672,-3.68359 5.19,1.72999 -0.2411,9.76818 1.8418,12.89254 1.4041,2.10617 5.3421,0.32302 7.3671,1.8418 1.3892,1.04187 2.7204,2.23876 3.6836,3.68358 0.6811,1.02164 -1.0982,3.13447 0,3.68358 3.9096,1.9548 12.2831,-4.29309 14.7344,-1.84179 2.3673,2.36735 3.3211,5.64619 9.2089,3.68358 2.1,-0.69999 3.9602,-2.11836 5.5254,-3.68358 6.192,-6.192 3.4107,-11.32359 5.5254,-9.20896 1.3023,1.30235 -0.506,3.75445 0,5.52538 0.7542,2.63994 2.0877,5.13299 3.6835,7.36716 4.7622,6.66706 12.9213,9.26637 16.5762,16.57613 1.198,2.39613 -1.7154,4.33964 1.8418,5.52537 1.1648,0.38829 2.4923,0.2978 3.6835,0 1.3318,-0.33295 2.956,-0.67767 3.6836,-1.84179 14.7493,-23.59882 0.5344,-4.75233 7.3672,-18.41792 1.1648,-2.3297 4.0805,-3.35814 5.5254,-5.52537 3.5464,-5.31961 10.6945,-19.90346 14.7343,-23.94329 2.7616,-2.76163 10.6252,3.11835 12.8925,-3.68358 0.9775,-2.93237 4.311,-15.55741 7.3672,-16.57613 7.7856,-2.59519 3.3856,14.4364 5.5254,16.57613 3.8247,3.8247 7.069,-4.98227 7.3671,-7.36717 2.9291,-23.43262 15.0403,-44.5027 18.418,-68.14628 1.293,-9.05134 0.9316,-18.5255 1.8417,-27.62688 2.2873,-22.87292 10.0445,-45.36158 12.8926,-68.14628 0.3646,-2.91716 -1.8174,-13.8501 0,-16.57613 0.7615,-1.14223 3.2891,-0.52689 3.6836,-1.84179 1.5974,-5.32492 1.0906,-11.06772 1.8418,-16.57612 1.8892,-13.85447 3.8294,-26.95211 5.5253,-40.51942 0.5544,-4.43496 2.8071,-8.50985 3.6836,-12.89254 2.9838,-14.91911 3.1379,-30.92422 5.5254,-46.04478 1.3941,-8.82958 6.1858,-16.92454 7.3672,-25.78509 1.4375,-10.78119 0.4825,-22.27849 1.8418,-33.15224 1.9247,-15.39777 5.0108,-30.72842 7.3671,-46.04479 2.068,-13.44161 6.8186,-26.804514 7.3672,-40.519413 0.9708,-19.627115 -0.7551,-39.306067 0,-58.937329 2.0457,-53.188931 1.8418,-5.195041 1.8418,-29.4686641 L 0 0" />
      </g>
    </svg>
