<?xml version="1.0" encoding="UTF-8" standalone="no"?>
<svg xmlns:svg="http://www.w3.org/2000/svg" xmlns="http://www.w3.org/2000/svg" width="853.33331" height="1514.6667" viewBox="0 0 853.33331 1514.6667">
  <defs>
            <linearGradient id='g1' gradientUnits='userSpaceOnUse' x1='-7.04%' y1='39.94%' x2='107.04%' y2='60.06%'>
            <stop stop-color='#3d75ca'/>
            <stop offset='.071' stop-color='#4374ce'/>
            <stop offset='.143' stop-color='#6b61f0'/>
            <stop offset='.214' stop-color='#6257e5'/>
            <stop offset='.286' stop-color='#6e53df'/>
            <stop offset='.357' stop-color='#7c51dc'/>
            <stop offset='.429' stop-color='#8948d2'/>
            <stop offset='.5' stop-color='#953bc5'/>
            <stop offset='.571' stop-color='#9e38bf'/>
            <stop offset='.643' stop-color='#ab38bf'/>
            <stop offset='.714' stop-color='#b43397'/>
            <stop offset='.786' stop-color='#bf3332'/>
            <stop offset='.857' stop-color='#c13534'/>
            <stop offset='.929' stop-color='#bf3531'/>
            <stop offset='1' stop-color='#c03431'/>
            </linearGradient>
            </defs>
  <g>
    <path style="fill:url(#g1);"
       d="m -1.8215252,876.1536 c 0,7.86096 5.4562672,-0.91491 10.929151,1.82153 3.4259452,1.71297 7.6536122,21.13129 12.7506762,23.67983 3.064741,1.53237 5.189527,-2.9442 7.286101,-3.64305 2.325162,-0.77506 10.681744,-0.41379 12.750676,0 1.331319,0.26626 2.303838,1.59832 3.64305,1.82152 10.744547,1.79076 24.374027,-3.41165 34.608978,0 18.088043,6.02935 13.323563,9.12232 34.608983,0 2.01219,-0.86237 4.03986,-1.98088 5.46457,-3.64305 6.47425,-7.55329 7.19353,-16.7849 10.92915,-25.50135 3.23668,-7.55225 8.68119,-13.99045 10.92915,-21.8583 0.90861,-3.18013 0.25606,-9.10763 5.46458,-9.10763 4.81764,0 8.36982,4.36936 12.75067,5.46458 6.34841,1.5871 1.24936,-2.89344 9.10763,1.82152 10.61393,6.36836 8.93911,25.36654 18.21525,32.78745 5.90711,4.72569 14.23826,-0.99576 20.03678,3.64305 5.87845,4.70277 27.98431,33.86358 30.96593,34.60898 4.44627,1.11157 19.54859,-6.92914 20.03677,-5.46457 0.57602,1.72805 -0.29945,3.66783 0,5.46457 1.19246,7.15477 9.59718,15.06175 14.5722,20.03678 3.68834,3.68833 6.7651,-1.56301 7.28611,0 0.57601,1.72805 -0.57602,3.73652 0,5.46457 0.0143,0.0428 7.14738,0.2312 7.2861,0 2.37908,-3.96513 4.55771,-8.21636 5.46457,-12.75067 0.35723,-1.78615 -1.09291,-4.00736 0,-5.46458 1.15203,-1.53604 3.54452,-1.82152 5.46458,-1.82152 5.00488,0 3.64305,33.62334 3.64305,36.4305 0,5.59984 0.1069,11.24985 1.82152,16.39373 0.8851,2.65529 4.57948,6.45233 5.46458,9.10762 1.30936,3.92809 1.95788,19.76409 0,23.67979 -4.1682,8.3364 0.75497,-7.7294 -3.64305,5.4646 -1.17544,3.5263 -0.98583,15.2578 0,18.2153 0.27112,0.8133 6.58673,-0.6994 7.2861,0 1.46585,1.4658 -1.64369,3.1095 -1.82153,3.643 -0.87096,2.6129 -0.50783,10.2115 0,12.7507 1.80984,9.0492 7.49126,16.6673 12.75068,23.6798 3.04702,4.0627 3.87698,3.877 7.2861,7.2861 4.08218,4.0822 3.18818,9.8664 10.92915,7.2861 4.04923,-1.3497 6.94859,-0.8264 10.92915,-1.8215 21.85263,-5.4632 30.2481,-25.1694 36.4305,-43.7166 1.47514,-4.4254 6.21331,-7.3867 7.28611,-12.7507 0.88976,-4.4488 -1.56625,-10.3955 0,-14.5722 8.86082,-23.62886 8.83446,13.0239 18.21525,3.6431 4.95918,-4.9592 -1.36971,-13.4284 1.82152,-18.2153 4.16349,-6.24521 3.72979,3.2094 5.46458,-5.46456 1.39345,-6.96727 -4.39755,-6.15435 0,-12.75068 0.3368,-0.5052 1.21435,0 1.82152,0 3.03588,0 6.11306,-0.49909 9.10763,0 5.52441,0.92074 4.75023,15.28655 12.75068,7.2861 2.93032,-2.93033 -4.75186,-9.82034 -1.82153,-12.75067 2.75131,-2.75131 9.6904,1.47523 10.92915,3.64305 3.4801,6.09017 3.73938,14.12558 7.2861,20.03676 6.09189,10.1532 21.51532,-2.6141 23.67983,-9.10761 1.24285,-3.72856 1.08201,-14.96922 0,-18.21525 -1.39892,-4.19675 -4.27533,-7.99371 -5.46458,-12.75068 -0.83889,-3.35556 1.09103,-7.65606 0,-10.92915 -0.17783,-0.53351 -3.28737,-2.1772 -1.82152,-3.64305 4.17216,-4.17216 7.2861,10.77605 7.2861,12.75068 0,0.60717 0.60717,1.82152 0,1.82152 -1.21435,0 -1.21435,-3.64305 0,-3.64305 1.32014,0 11.44698,6.76828 12.75067,5.46458 3.21861,-3.21861 -3.97266,-8.39058 3.64306,-10.92915 3.9527,-1.31757 1.21792,5.47529 1.82152,7.2861 1.07692,3.23076 12.31438,5.90087 14.5722,3.64305 4.09039,-4.0904 -5.09076,-19.71052 -3.64305,-25.50136 2.55474,-10.21894 12.09254,18.52101 14.5722,3.64305 1.93388,-11.60328 -6.06952,-20.65508 -3.64305,-32.78745 1.35458,-6.77286 19.4138,4.17121 16.39373,-10.92915 -0.26627,-1.33132 -1.59832,-2.30384 -1.82153,-3.64305 -1.79,-10.74005 0,-23.70561 0,-34.60898 0,-1.21435 -1.0104,-2.96945 0,-3.64305 4.57479,-3.04985 11.2456,3.75208 16.39373,1.82153 2.08508,-0.78191 14.30516,-51.12983 16.39373,-56.46728 10.48497,-26.79493 10.3301,-18.83868 20.03677,-38.25203 0.60718,-1.21435 -0.86149,2.68302 -1.82152,3.64305 -0.85868,0.85867 -4.8574,0 -3.64305,0 18.18167,0 -1.94825,0.81686 32.78745,-9.10763 10.58739,-3.02497 24.61907,-0.46962 34.60898,-5.46457 2.30407,-1.15204 3.64305,-3.64305 5.46457,-5.46458 6.07175,-6.07175 11.69571,-12.62707 18.21526,-18.21525 12.96311,-11.11124 5.61819,-1.16314 9.10762,0 6.37633,2.12544 14.14011,-5.54188 18.21525,-9.10763 12.86556,-11.25735 2.42147,-4.06848 16.39373,-20.03677 1.61502,-1.84574 14.39204,-7.12596 14.5722,-7.2861 9.71659,-8.63697 15.55302,-24.47381 20.03678,-36.43051 4.62536,-12.33429 -5.22718,-41.10301 7.2861,-47.35965 0.29796,-0.14898 4.62219,11.13793 10.92915,16.39373 4.66445,3.88704 11.31243,5.80664 14.5722,10.92915 2.78515,4.37666 2.79552,10.12378 5.46458,14.5722 4.23636,7.06061 12.98422,-0.21793 16.39372,5.46457 4.25001,7.08334 -0.55133,12.12727 1.82153,20.03678 1.35906,4.5302 11.21858,8.62854 14.5722,9.10763 9.87356,1.41051 -3.60408,-20.03678 7.2861,-20.03678 4.9953,0 6.72878,22.69428 10.92915,16.39373 1.0104,-1.5156 0,-3.64305 0,-5.46458 0,-3.64305 0.32983,-7.30106 0,-10.92915 -0.2803,-3.08328 -1.43751,-6.03554 -1.82152,-9.10763 -1.87735,-15.01878 -0.11093,9.14461 5.46457,7.2861 5.73038,-1.91012 -0.0892,-21.91188 1.82153,-25.50135  L 853.33331,0 L 0,0"/>
  </g>
</svg>
